<svg xmlns="http://www.w3.org/2000/svg" viewBox="0 0 81 31.5"><path d="M51.45.26h-9.8c-.6 0-1.43.35-1.85.77L34.9 6c-.42.43-.76 1.26-.76 1.86v4.6c0 .6.41 1.35.91 1.68l10.39 6.79c.5.33.63 1 .29 1.49l-1.06 1.53c-.34.49-1.11.89-1.7.89l-10.65.01c-.6 0-1.43-.35-1.85-.77l-1.5-1.52c-.42-.43-.76-1.26-.76-1.86V7.85c0-.6-.45-.89-1-.66l-4.42 1.87c-.55.23-1 .91-1 1.51V20.7c0 .6-.33 1.44-.73 1.88l-1.36 1.48c-.4.44-1.22.8-1.82.8H7.71c-.6 0-1.09-.49-1.09-1.08V1.34c0-.6-.49-1.08-1.09-1.08H1.29C.69.26.2.75.2 1.34v28.82c0 .6.49 1.08 1.09 1.08h19.68c.6 0 1.42-.36 1.82-.8l1.49-1.61c.41-.44 1.08-.45 1.51-.03l1.67 1.67c.42.42 1.26.77 1.86.77H46.2c.6 0 1.41-.37 1.8-.82l4.19-4.77c.39-.45.72-1.3.72-1.9v-4.44c0-.6-.41-1.35-.91-1.67l-10.53-6.81c-.5-.32-.56-.93-.14-1.35l1.97-1.94c.43-.42 1.26-.76 1.86-.76L54 6.75 51.45.26z" fill="#2d5ac3"/><path d="M28.2 2.98c0 .6-.45 1.28-1 1.51l-4.4 1.88c-.55.23-1-.07-1-.67V1.34c0-.6.49-1.09 1.08-1.09h4.24c.6 0 1.08.49 1.08 1.09v1.64z" fill="#e72433"/><path d="M53.85 6.76l7.92-.01c.6 0 1.09.49 1.09 1.08v22.33c0 .6.49 1.08 1.09 1.08h4.26c.6 0 1.09-.49 1.09-1.08V7.85c0-.6.49-1.08 1.09-1.08h9.65c.6 0 .91-.45.69-1.01l-1.79-4.5C78.72.71 78.05.25 77.45.25H51.4l2.45 6.51z" fill="#1840a0"/></svg>