<?xml version="1.0" encoding="UTF-8"?><svg id="_이어_1" xmlns="http://www.w3.org/2000/svg" xmlns:xlink="http://www.w3.org/1999/xlink" viewBox="0 0 160 42"><defs><style>.cls-1{fill:url(#_제_그라디언트_9);}.cls-2{fill:#fff;}.cls-3{fill:none;stroke:#000;stroke-miterlimit:10;}.cls-4{fill:#fc0;}</style><linearGradient id="_제_그라디언트_9" x1="3.19" y1="5.54" x2="30.69" y2="36.77" gradientTransform="matrix(1, 0, 0, 1, 0, 0)" gradientUnits="userSpaceOnUse"><stop offset="0" stop-color="#22e6f3"/><stop offset=".09" stop-color="#26cff5"/><stop offset=".26" stop-color="#2caef8"/><stop offset=".44" stop-color="#3094fb"/><stop offset=".61" stop-color="#3481fd"/><stop offset=".8" stop-color="#3676fe"/><stop offset="1" stop-color="#3773ff"/></linearGradient></defs><g><line class="cls-3" x1="92.88" y1="13.17" x2="92.88" y2="30.24"/><g><path d="M43.26,17.02v-.44c0-.39-.31-.7-.7-.7h-2.07c-.39,0-.7-.31-.7-.7v-.98c0-.39,.31-.7,.7-.7h8.15c.39,0,.7,.31,.7,.7v.98c0,.39-.31,.7-.7,.7h-1.82c-.39,0-.7,.31-.7,.7v.44c-.01,3.27,.94,6.58,3.57,8.45,.32,.23,.39,.69,.14,1l-.87,1.09c-.24,.29-.66,.35-.97,.13-1.47-1.06-2.48-2.63-3.14-4.48-.05-.13-.23-.13-.28,0-.66,2.04-1.73,3.79-3.25,4.94-.3,.23-.73,.17-.96-.12l-.91-1.11c-.25-.3-.2-.75,.12-.99,2.67-2.02,3.69-5.54,3.69-8.9Zm5.26,1.58h1.4c.39,0,.7-.31,.7-.7v-5.52c0-.39,.31-.7,.7-.7h1.4c.39,0,.7,.31,.7,.7V30.84c0,.39-.31,.7-.7,.7h-1.4c-.39,0-.7-.31-.7-.7v-9.15c0-.39-.31-.7-.7-.7h-1.4c-.39,0-.7-.31-.7-.7v-1c0-.39,.31-.7,.7-.7Zm8.52,13.91h-1.42c-.39,0-.7-.31-.7-.7V12.03c0-.39,.31-.7,.7-.7h1.42c.39,0,.7,.31,.7,.7V31.82c0,.39-.31,.7-.7,.7Z"/><path d="M80.14,30.05h-18c-.38,0-.69-.31-.69-.69v-1.04c0-.38,.31-.69,.69-.69h7.19c.16,0,.28-.13,.28-.28v-3.3c0-.18-.15-.33-.33-.33h-5.1c-.38,0-.69-.31-.69-.69V13.38c0-.38,.31-.69,.69-.69h1.6c.38,0,.69,.31,.69,.69v1.9c0,.38,.31,.69,.69,.69h7.85c.38,0,.69-.31,.69-.69v-1.9c0-.38,.31-.69,.69-.69h1.57c.38,0,.69,.31,.69,.69v9.65c0,.38-.31,.69-.69,.69h-5.07c-.18,0-.33,.15-.33,.33v3.3c0,.16,.13,.28,.28,.28h7.29c.38,0,.69,.31,.69,.69v1.04c0,.38-.31,.69-.69,.69Zm-4.43-9.39v-1.62c0-.38-.31-.69-.69-.69h-7.85c-.38,0-.69,.31-.69,.69v1.62c0,.38,.31,.69,.69,.69h7.85c.38,0,.69-.31,.69-.69Z"/></g><g><path d="M137.41,15.8c-.06-.01-.13-.02-.19-.03-.01,0-.03,0-.04,0-.09-.01-.18-.02-.27-.02-.1,0-.21-.01-.31-.02-.03,0-.06,0-.09,0-.04,0-.08,0-.13,0-.13,0-.25,0-.37,.02-.06,0-.11,.01-.17,.02-.14,.02-.27,.04-.41,.06-.04,0-.09,.02-.13,.02-.16,.03-.31,.07-.46,.12-.02,0-.04,.01-.06,.02-.35,.11-.69,.25-1.01,.43-.02,.01-.04,.02-.06,.04-.1,.05-.2,.11-.29,.17v-5.59c0-.31-.25-.57-.57-.57h-1.8c-.31,0-.57,.25-.57,.57v15.67c0,.31,.25,.57,.57,.57h1.8c.31,0,.57-.25,.57-.57v-.31s.03,.01,.04,.02c.2,.13,.41,.24,.63,.34l.04,.02c.47,.21,.97,.36,1.5,.44h.06c.27,.05,.54,.07,.82,.07,3.19,0,5.78-2.59,5.78-5.78,0-2.89-2.12-5.27-4.88-5.71Zm-.8,8.43c-1.47,0-2.67-1.19-2.67-2.67s1.19-2.67,2.67-2.67,2.67,1.19,2.67,2.67-1.19,2.67-2.67,2.67Z"/><path d="M115.46,20.92c-.01-3.86,2.37-6.48,6.04-6.48,3.28,0,5.88,2.07,5.88,6.34v.28c0,.38-.31,.69-.69,.69h-7.87c0,1.89,1.12,3.05,2.88,3.07,1.01,0,1.76-.39,2.17-.98,.12-.18,.33-.29,.55-.29h1.91c.49,0,.83,.51,.63,.96-.8,1.76-2.7,2.85-5.33,2.86-3.84-.01-6.19-2.49-6.18-6.45Zm8.69-1.31c-.01-1.52-1.06-2.62-2.58-2.6-1.57-.01-2.67,1.16-2.74,2.6h5.32Z"/><g><path d="M110.52,9.49c1.01,.01,1.86,.78,1.84,1.75,.01,.95-.83,1.73-1.84,1.73s-1.87-.78-1.87-1.73,.84-1.74,1.87-1.75Z"/><path d="M111.56,14.61h-2.04c-.38,0-.68,.31-.68,.68v12.41c0,.83-.32,1.31-1.13,1.42h-1.9c-.48,0-.87,.39-.87,.87v.95c0,.48,.39,.87,.87,.87h2.2c2.65-.15,4.23-1.34,4.24-4.08V15.29c0-.38-.31-.68-.68-.68Z"/></g><path d="M150.66,15.77c-3.19,0-5.78,2.59-5.78,5.78s2.59,5.78,5.78,5.78,5.78-2.59,5.78-5.78-2.59-5.78-5.78-5.78Zm.1,8.51c-1.47,0-2.67-1.19-2.67-2.67s1.19-2.67,2.67-2.67,2.67,1.19,2.67,2.67-1.19,2.67-2.67,2.67Z"/></g></g><g><rect class="cls-1" x="3.84" y="9.39" width="25.93" height="23.21" rx="5.46" ry="5.46"/><path class="cls-2" d="M21.22,25.7c-.17-.25-.61-.32-.87,.05-.78,1.12-2.12,2.05-4.06,2.03-1.82-.01-3.35-.87-4.06-2.03-.23-.37-.56-.41-.81-.23-.2,.14-.18,.46-.12,.59,.77,1.53,2.77,2.55,4.98,2.55s4.22-1.03,4.98-2.55c.06-.12,.02-.29-.06-.41Z"/><g><path class="cls-2" d="M7.27,22.41l.29-.21c.24-.18,.58-.12,.77,.11,.4,.5,.89,.72,1.44,.72,1.08,0,1.62-.59,1.62-2.17v-6.03c0-.31,.25-.55,.55-.55h.59c.31,0,.55,.25,.55,.55v6.19c0,1.93-.94,3.48-3.13,3.48-1.24,0-2.15-.44-2.8-1.31-.19-.25-.14-.6,.11-.79Z"/><path class="cls-4" d="M16.57,21.28c-.42,0-.77,.34-.77,.77s.34,.77,.77,.77,.77-.34,.77-.77-.34-.77-.77-.77Z"/><path class="cls-2" d="M23.19,17.73c-.71,0-1.37,.22-1.91,.59v-3.49c0-.31-.25-.55-.55-.55h-.59c-.31,0-.55,.25-.55,.55v9.12c0,.31,.25,.55,.55,.55h.59c.31,0,.55-.25,.55-.55v-.06c.54,.37,1.2,.59,1.91,.59,1.86,0,3.38-1.51,3.38-3.38s-1.51-3.38-3.38-3.38Zm0,5.55c-1.2,0-2.17-.97-2.17-2.17s.97-2.17,2.17-2.17,2.17,.97,2.17,2.17-.97,2.17-2.17,2.17Z"/></g></g></svg>